<svg xmlns="http://www.w3.org/2000/svg" width="185.999" height="217.595" viewBox="0 0 185.999 217.595">
  <g id="Tea_Cup" data-name="Tea Cup" transform="translate(-484.241 -263.019)">
    <g id="Group_66" data-name="Group 66" transform="translate(484.241 351.542)">
      <path id="Path_3673" data-name="Path 3673" d="M546.465,388.631q42.282-.026,84.565,0c6.761,0,8.763,2.463,7.612,9.161-.476,2.771-1.9,5.982-.991,8.227,1,2.487,4.9,1.536,7.491,2.265a34.117,34.117,0,0,1-13.7,66.694c-3.831-.551-7.675-1.034-11.49-1.685a2.778,2.778,0,0,0-3.333,1.685c-4.376,7.738-9.173,15.106-18.156,18.295-.211.075-.506.211-.563.384-1.873,5.679-6.621,4.564-10.853,4.569-18.205.02-36.41-.023-54.615.041-2.978.011-5.317-.66-6.517-3.659a2.382,2.382,0,0,0-1.05-1.3c-11.618-4.453-16.8-14.623-21.492-24.885-8.888-19.448-13.469-40.187-17.189-61.129-.656-3.694-1.281-7.4-1.833-11.107-.687-4.628,1.735-7.535,6.365-7.535C491.779,388.646,542.6,388.634,546.465,388.631Zm89.064,75.817c13.227-.087,23.436-9.993,23.914-22.415a23.564,23.564,0,0,0-21.422-24.105c-1.45-.126-2.794-.451-3.293,1.908-2.931,13.879-6.329,27.643-11.55,40.879-.555,1.405-.4,1.989,1.312,2.256A102.431,102.431,0,0,0,635.529,464.449Z" transform="translate(-484.241 -388.618)" fill="#fff" fill-rule="evenodd"/>
    </g>
    <path id="Path_3674" data-name="Path 3674" d="M640.076,558.11a5.17,5.17,0,0,1-5.223,5.11H609.77a3.1,3.1,0,0,1-3.185,3H518.864a3.092,3.092,0,0,1-3.186-3H491.123a5.17,5.17,0,0,1-5.223-5.11,5.06,5.06,0,0,1,1.529-3.616A5.276,5.276,0,0,1,491.123,553H634.854A5.17,5.17,0,0,1,640.076,558.11Z" transform="translate(-0.49 -85.601)" fill="#fff"/>
    <path id="Path_3675" data-name="Path 3675" d="M570.477,352.661s4.7-10.1-2.232-13.861-15.859-8.4-15.858-11.982c0-5.875,4.464-8.575,8.458-13.861,0,0-7.737,10.061-.94,14.332,3.745,2.352,16.013,7.444,17.15,10.689C579.053,343.674,577.878,344.673,570.477,352.661Z" transform="translate(-20.116 -14.741)" fill="#fff" fill-rule="evenodd"/>
    <path id="Path_3676" data-name="Path 3676" d="M603.456,339.987s9.107-19.582-4.327-26.87-30.744-16.282-30.742-23.228c0-11.388,8.653-16.623,16.4-26.87,0,0-15,19.5-1.822,27.781,7.259,4.559,31.041,14.431,33.246,20.722C620.078,322.567,617.8,324.5,603.456,339.987Z" transform="translate(-24.84)" fill="#fff" fill-rule="evenodd"/>
  </g>
</svg>
